<svg width="56px" height="48px" viewBox="0 0 56 48" version="1.1" xmlns="http://www.w3.org/2000/svg" xmlns:xlink="http://www.w3.org/1999/xlink">
    <defs>
        <polygon id="path-1"
                 points="0.33969633 0.1215 27.009 0.1215 27.009 20.6395 0.33969633 20.6395"/>
        <polygon id="path-3"
                 points="0 0.1209 26.6692037 0.1209 26.6692037 20.6399 0 20.6399"/>
    </defs>
    <g id="Symbols" stroke="none" stroke-width="1" fill="none" fill-rule="evenodd">
        <g id="Advisor-Icon">
            <g id="Group-39">
                <path d="M42.6749,34.696 C56.8409,34.696 54.9929,32.223 54.9929,28.514 C54.9929,24.806 54.3769,24.188 51.9129,21.716 C49.4489,19.243 42.6749,16.152 42.6749,16.152 C42.6749,16.152 35.8999,19.243 33.4359,21.716 C30.9719,24.188 30.3569,24.806 30.3569,28.514 C30.3569,32.223 28.5089,34.696 42.6749,34.696"
                      id="Fill-1" fill="#FFFFFF"/>
                <g id="Group-5" transform="translate(29.000000, 14.997700)">
                    <mask id="mask-2" fill="white">
                        <use xlink:href="#path-1"/>
                    </mask>
                    <g id="Clip-4"/>
                    <path d="M13.674,2.1935 C12.221,2.8805 7.087,5.3885 5.099,7.3825 C2.668,9.8225 2.294,10.1975 2.294,13.5175 C2.294,13.9345 2.272,14.3385 2.251,14.7235 C2.184,15.9225 2.169,16.6245 2.641,17.1255 C3.691,18.2385 7.196,18.7565 13.674,18.7565 C20.153,18.7565 23.658,18.2385 24.708,17.1255 C25.18,16.6245 25.165,15.9225 25.098,14.7235 C25.076,14.3385 25.055,13.9345 25.055,13.5175 C25.055,10.1975 24.681,9.8225 22.25,7.3825 C20.263,5.3885 15.128,2.8805 13.674,2.1935 M13.674,20.6395 C5.124,20.6395 2.535,19.7525 1.278,18.4185 C0.228,17.3035 0.304,15.9395 0.378,14.6185 C0.398,14.2665 0.418,13.8985 0.418,13.5175 C0.418,9.4185 1.264,8.5695 3.773,6.0515 C6.327,3.4895 13.003,0.4265 13.286,0.2985 L13.674,0.1215 L14.063,0.2985 C14.346,0.4265 21.023,3.4895 23.576,6.0515 C26.085,8.5695 26.931,9.4185 26.931,13.5175 C26.931,13.8985 26.951,14.2665 26.971,14.6185 C27.045,15.9395 27.121,17.3035 26.07,18.4185 C24.814,19.7525 22.225,20.6395 13.674,20.6395"
                          id="Fill-3" fill="#0C80FE" mask="url(#mask-2)"/>
                </g>
                <path d="M42.6749,20.4714 C37.3089,20.4714 32.9439,16.0914 32.9439,10.7064 C32.9439,5.3214 37.3089,0.9414 42.6749,0.9414 C48.0399,0.9414 52.4049,5.3214 52.4049,10.7064 C52.4049,16.0914 48.0399,20.4714 42.6749,20.4714"
                      id="Fill-6" fill="#FFFFFF"/>
                <path d="M42.6749,-0.0002 C36.7919,-0.0002 32.0059,4.8028 32.0059,10.7068 C32.0059,16.6098 36.7919,21.4128 42.6749,21.4128 C48.5579,21.4128 53.3429,16.6098 53.3429,10.7068 C53.3429,4.8028 48.5579,-0.0002 42.6749,-0.0002 M42.6749,1.8828 C47.5299,1.8828 51.4679,5.8328 51.4679,10.7068 C51.4679,15.5798 47.5299,19.5308 42.6749,19.5308 C37.8189,19.5308 33.8819,15.5798 33.8819,10.7068 C33.8819,5.8328 37.8189,1.8828 42.6749,1.8828"
                      id="Fill-8" fill="#0C80FE"/>
                <polygon id="Fill-10" fill="#0C80FE"
                         points="42.6749 22.8621 37.3839 19.9961 47.9659 19.9971"/>
                <polygon id="Fill-12" fill="#0C80FE"
                         points="42.674 20.1648 44.942 29.7658 42.675 32.8208 40.407 29.7658"/>
                <path d="M13.3341,34.696 C-0.8319,34.696 1.0161,32.223 1.0161,28.514 C1.0161,24.806 1.6321,24.188 4.0961,21.716 C6.5601,19.243 13.3341,16.152 13.3341,16.152 C13.3341,16.152 20.1091,19.243 22.5731,21.716 C25.0371,24.188 25.6531,24.806 25.6531,28.514 C25.6531,32.223 27.5011,34.696 13.3341,34.696"
                      id="Fill-14" fill="#FFFFFF"/>
                <g id="Group-18" transform="translate(0.000000, 14.997700)">
                    <mask id="mask-4" fill="white">
                        <use xlink:href="#path-3"/>
                    </mask>
                    <g id="Clip-17"/>
                    <path d="M4.7589,7.3829 C2.3279,9.8219 1.9539,10.1969 1.9539,13.5179 C1.9539,13.9349 1.9329,14.3379 1.9109,14.7239 C1.8449,15.9219 1.8299,16.6239 2.3019,17.1249 C3.3509,18.2379 6.8569,18.7569 13.3349,18.7569 C19.8129,18.7569 23.3189,18.2379 24.3679,17.1249 C24.8399,16.6239 24.8249,15.9219 24.7579,14.7239 C24.7379,14.3379 24.7149,13.9349 24.7149,13.5179 C24.7149,10.1969 24.3419,9.8219 21.9109,7.3829 C19.9219,5.3889 14.7879,2.8809 13.3349,2.1939 C11.8809,2.8809 6.7459,5.3889 4.7589,7.3829 M0.9389,18.4179 C-0.1121,17.3039 -0.0361,15.9399 0.0379,14.6179 C0.0579,14.2669 0.0779,13.8989 0.0779,13.5179 C0.0779,9.4179 0.9239,8.5699 3.4329,6.0519 C5.9869,3.4889 12.6629,0.4269 12.9469,0.2989 L13.3349,0.1209 L13.7229,0.2989 C14.0059,0.4269 20.6819,3.4889 23.2369,6.0519 C25.7449,8.5699 26.5909,9.4179 26.5909,13.5179 C26.5909,13.8989 26.6119,14.2669 26.6309,14.6179 C26.7049,15.9399 26.7809,17.3039 25.7309,18.4179 C24.4739,19.7519 21.8849,20.6399 13.3349,20.6399 C4.7839,20.6399 2.1959,19.7519 0.9389,18.4179"
                          id="Fill-16" fill="#0C80FE" mask="url(#mask-4)"/>
                </g>
                <path d="M13.3341,20.4714 C18.7001,20.4714 23.0651,16.0914 23.0651,10.7064 C23.0651,5.3214 18.7001,0.9414 13.3341,0.9414 C7.9691,0.9414 3.6041,5.3214 3.6041,10.7064 C3.6041,16.0914 7.9691,20.4714 13.3341,20.4714"
                      id="Fill-19" fill="#FFFFFF"/>
                <path d="M13.3341,-0.0002 C7.4521,-0.0002 2.6661,4.8028 2.6661,10.7068 C2.6661,16.6098 7.4521,21.4128 13.3341,21.4128 C19.2171,21.4128 24.0031,16.6098 24.0031,10.7068 C24.0031,4.8028 19.2171,-0.0002 13.3341,-0.0002 M13.3341,1.8828 C18.1901,1.8828 22.1271,5.8328 22.1271,10.7068 C22.1271,15.5798 18.1901,19.5308 13.3341,19.5308 C8.4791,19.5308 4.5411,15.5798 4.5411,10.7068 C4.5411,5.8328 8.4791,1.8828 13.3341,1.8828"
                      id="Fill-21" fill="#0C80FE"/>
                <polygon id="Fill-23" fill="#0C80FE"
                         points="13.3341 22.8621 18.6251 19.9961 8.0431 19.9971"/>
                <polygon id="Fill-25" fill="#0C80FE"
                         points="13.3351 20.1648 11.0671 29.7658 13.3341 32.8208 15.6021 29.7658"/>
                <path d="M28.004,47.0564 C42.17,47.0564 40.322,44.5834 40.322,40.8754 C40.322,37.1664 39.707,36.5484 37.243,34.0764 C34.779,31.6034 28.004,28.5134 28.004,28.5134 C28.004,28.5134 21.229,31.6034 18.766,34.0764 C16.302,36.5484 15.686,37.1664 15.686,40.8754 C15.686,44.5834 13.838,47.0564 28.004,47.0564"
                      id="Fill-27" fill="#FFFFFF"/>
                <path d="M28.004,29.5515 C26.551,30.2385 21.416,32.7465 19.428,34.7405 C16.997,37.1805 16.624,37.5555 16.624,40.8755 C16.624,41.2925 16.602,41.6965 16.58,42.0825 C16.514,43.2805 16.499,43.9825 16.971,44.4835 C18.021,45.5975 21.526,46.1145 28.004,46.1145 C34.482,46.1145 37.987,45.5975 39.037,44.4835 C39.509,43.9825 39.494,43.2805 39.428,42.0825 C39.406,41.6965 39.385,41.2925 39.385,40.8755 C39.385,37.5555 39.011,37.1805 36.58,34.7405 C34.593,32.7465 29.457,30.2385 28.004,29.5515 M28.004,47.9975 C19.453,47.9975 16.864,47.1105 15.608,45.7765 C14.558,44.6615 14.634,43.2975 14.708,41.9765 C14.727,41.6245 14.748,41.2565 14.748,40.8755 C14.748,36.7765 15.593,35.9275 18.102,33.4105 C20.657,30.8475 27.333,27.7855 27.615,27.6565 L28.004,27.4795 L28.393,27.6565 C28.675,27.7855 35.352,30.8475 37.906,33.4105 C40.415,35.9275 41.26,36.7765 41.26,40.8755 C41.26,41.2565 41.281,41.6245 41.3,41.9765 C41.374,43.2975 41.45,44.6615 40.4,45.7765 C39.144,47.1105 36.555,47.9975 28.004,47.9975"
                      id="Fill-29" fill="#0C80FE"/>
                <path d="M28.004,32.8328 C22.638,32.8328 18.274,28.4518 18.274,23.0668 C18.274,17.6818 22.638,13.3018 28.004,13.3018 C33.37,13.3018 37.735,17.6818 37.735,23.0668 C37.735,28.4518 33.37,32.8328 28.004,32.8328"
                      id="Fill-31" fill="#FFFFFF"/>
                <path d="M28.004,12.3601 C22.121,12.3601 17.336,17.1631 17.336,23.0671 C17.336,28.9701 22.121,33.7731 28.004,33.7731 C33.887,33.7731 38.673,28.9701 38.673,23.0671 C38.673,17.1631 33.887,12.3601 28.004,12.3601 M28.004,14.2431 C32.86,14.2431 36.797,18.1941 36.797,23.0671 C36.797,27.9401 32.86,31.8911 28.004,31.8911 C23.148,31.8911 19.211,27.9401 19.211,23.0671 C19.211,18.1941 23.148,14.2431 28.004,14.2431"
                      id="Fill-33" fill="#0C80FE"/>
                <polygon id="Fill-35" fill="#0C80FE"
                         points="28.005 35.2224 22.714 32.3564 33.295 32.3574"/>
                <polygon id="Fill-37" fill="#0C80FE"
                         points="28.004 32.5252 30.272 42.1262 28.005 45.1812 25.736 42.1262"/>
            </g>
        </g>
    </g>
</svg>
