<svg width="56px" height="48px" viewBox="0 0 56 48" version="1.1" xmlns="http://www.w3.org/2000/svg">
    <g id="Symbols" stroke="none" stroke-width="1" fill="none" fill-rule="evenodd">
        <g id="Landing-Page-Icon-Link" transform="translate(-40.000000, -16.000000)">
            <g id="Board-Members-Icon" transform="translate(40.000000, 16.000000)">
                <path d="M13.3347,34.6964 C27.5007,34.6964 25.6527,32.2234 25.6527,28.5144 C25.6527,24.8064 25.0367,24.1884 22.5737,21.7164 C20.1097,19.2434 13.3347,16.1524 13.3347,16.1524 C13.3347,16.1524 6.5597,19.2434 4.0967,21.7164 C1.6327,24.1884 1.0167,24.8064 1.0167,28.5144 C1.0167,32.2234 -0.8313,34.6964 13.3347,34.6964"
                      id="Fill-1" fill="#FFFFFF"/>
                <path d="M13.3347,17.1915 C11.8817,17.8785 6.7467,20.3865 4.7597,22.3815 C2.3277,24.8215 1.9537,25.1965 1.9537,28.5145 C1.9537,28.9315 1.9327,29.3355 1.9107,29.7205 C1.8437,30.9195 1.8287,31.6215 2.3007,32.1225 C3.3507,33.2365 6.8567,33.7545 13.3347,33.7545 C19.8137,33.7545 23.3187,33.2365 24.3687,32.1225 C24.8397,31.6215 24.8247,30.9195 24.7587,29.7205 C24.7367,29.3355 24.7157,28.9315 24.7157,28.5145 C24.7157,25.1965 24.3417,24.8215 21.9117,22.3825 C19.9207,20.3845 14.7887,17.8785 13.3347,17.1915 M13.3347,35.6365 C4.7837,35.6365 2.1947,34.7495 0.9387,33.4155 C-0.1113,32.3015 -0.0353,30.9355 0.0377,29.6165 C0.0577,29.2635 0.0777,28.8965 0.0777,28.5145 C0.0777,24.4175 0.9237,23.5695 3.4317,21.0525 C5.9867,18.4875 12.6637,15.4245 12.9467,15.2955 L13.3347,15.1185 L13.7237,15.2955 C14.0067,15.4245 20.6827,18.4875 23.2357,21.0505 C25.7457,23.5695 26.5917,24.4175 26.5917,28.5145 C26.5917,28.8965 26.6117,29.2635 26.6317,29.6165 C26.7047,30.9355 26.7807,32.3015 25.7307,33.4155 C24.4747,34.7495 21.8857,35.6365 13.3347,35.6365"
                      id="Fill-3" fill="#0C80FE"/>
                <path d="M13.3347,20.4728 C7.9697,20.4728 3.6047,16.0918 3.6047,10.7068 C3.6047,5.3228 7.9697,0.9418 13.3347,0.9418 C18.6997,0.9418 23.0647,5.3228 23.0647,10.7068 C23.0647,16.0918 18.6997,20.4728 13.3347,20.4728"
                      id="Fill-6" fill="#FFFFFF"/>
                <path d="M13.3347,0.0001 C7.4517,0.0001 2.6667,4.8031 2.6667,10.7071 C2.6667,16.6101 7.4517,21.4131 13.3347,21.4131 C19.2177,21.4131 24.0037,16.6101 24.0037,10.7071 C24.0037,4.8031 19.2177,0.0001 13.3347,0.0001 M13.3347,1.8831 C18.1907,1.8831 22.1277,5.8331 22.1277,10.7071 C22.1277,15.5801 18.1907,19.5311 13.3347,19.5311 C8.4787,19.5311 4.5417,15.5801 4.5417,10.7071 C4.5417,5.8331 8.4787,1.8831 13.3347,1.8831"
                      id="Fill-8" fill="#0C80FE"/>
                <path d="M42.6648,34.6964 C56.8318,34.6964 54.9828,32.2234 54.9828,28.5144 C54.9828,24.8064 54.3678,24.1884 51.9038,21.7164 C49.4398,19.2434 42.6648,16.1524 42.6648,16.1524 C42.6648,16.1524 35.8908,19.2434 33.4268,21.7164 C30.9628,24.1884 30.3468,24.8054 30.3468,28.5144 C30.3468,32.2234 28.4988,34.6964 42.6648,34.6964"
                      id="Fill-10" fill="#FFFFFF"/>
                <path d="M42.6657,17.1915 C41.2117,17.8785 36.0767,20.3855 34.0897,22.3815 C31.6587,24.8205 31.2847,25.1955 31.2847,28.5145 C31.2847,28.9315 31.2637,29.3355 31.2417,29.7215 C31.1747,30.9195 31.1597,31.6215 31.6317,32.1225 C32.6817,33.2365 36.1867,33.7545 42.6657,33.7545 C49.1437,33.7545 52.6487,33.2365 53.6987,32.1225 C54.1707,31.6215 54.1557,30.9195 54.0887,29.7215 C54.0677,29.3355 54.0457,28.9315 54.0457,28.5145 C54.0457,25.1955 53.6717,24.8205 51.2397,22.3815 C49.2507,20.3835 44.1187,17.8785 42.6657,17.1915 M42.6657,35.6365 C34.1147,35.6365 31.5257,34.7495 30.2697,33.4155 C29.2187,32.3015 29.2947,30.9365 29.3687,29.6165 C29.3887,29.2635 29.4087,28.8965 29.4087,28.5145 C29.4087,24.4165 30.2547,23.5685 32.7637,21.0505 C35.3167,18.4865 41.9937,15.4245 42.2767,15.2955 L42.6657,15.1185 L43.0537,15.2955 C43.3367,15.4245 50.0127,18.4865 52.5657,21.0505 C55.0757,23.5685 55.9217,24.4155 55.9217,28.5145 C55.9217,28.8965 55.9417,29.2635 55.9617,29.6165 C56.0357,30.9365 56.1117,32.3015 55.0617,33.4155 C53.8047,34.7495 51.2157,35.6365 42.6657,35.6365"
                      id="Fill-12" fill="#0C80FE"/>
                <path d="M42.6657,20.4728 C37.2997,20.4728 32.9347,16.0918 32.9347,10.7068 C32.9347,5.3228 37.2997,0.9418 42.6657,0.9418 C48.0307,0.9418 52.3947,5.3228 52.3947,10.7068 C52.3947,16.0918 48.0307,20.4728 42.6657,20.4728"
                      id="Fill-15" fill="#FFFFFF"/>
                <path d="M42.6648,0.0001 C36.7818,0.0001 31.9968,4.8031 31.9968,10.7071 C31.9968,16.6101 36.7818,21.4131 42.6648,21.4131 C48.5478,21.4131 53.3338,16.6101 53.3338,10.7071 C53.3338,4.8031 48.5478,0.0001 42.6648,0.0001 M42.6648,1.8821 C47.5208,1.8821 51.4578,5.8331 51.4578,10.7071 C51.4578,15.5801 47.5208,19.5311 42.6648,19.5311 C37.8098,19.5311 33.8718,15.5801 33.8718,10.7071 C33.8718,5.8331 37.8098,1.8821 42.6648,1.8821"
                      id="Fill-17" fill="#0C80FE"/>
                <path d="M27.9997,47.0587 C42.1657,47.0587 40.3177,44.5857 40.3177,40.8777 C40.3177,37.1687 39.7027,36.5507 37.2387,34.0787 C34.7747,31.6057 27.9997,28.5157 27.9997,28.5157 C27.9997,28.5157 21.2247,31.6057 18.7617,34.0787 C16.2977,36.5507 15.6817,37.1687 15.6817,40.8777 C15.6817,44.5857 13.8337,47.0587 27.9997,47.0587"
                      id="Fill-19" fill="#FFFFFF"/>
                <path d="M27.9997,29.5538 C26.5467,30.2408 21.4117,32.7488 19.4237,34.7428 C16.9927,37.1828 16.6197,37.5578 16.6197,40.8778 C16.6197,41.2948 16.5977,41.6988 16.5757,42.0848 C16.5097,43.2828 16.4947,43.9848 16.9667,44.4858 C18.0167,45.5998 21.5217,46.1168 27.9997,46.1168 C34.4777,46.1168 37.9827,45.5998 39.0327,44.4858 C39.5047,43.9848 39.4897,43.2828 39.4237,42.0848 C39.4017,41.6988 39.3807,41.2948 39.3807,40.8778 C39.3807,37.5578 39.0067,37.1828 36.5757,34.7428 C34.5887,32.7488 29.4527,30.2408 27.9997,29.5538 M27.9997,47.9998 C19.4487,47.9998 16.8597,47.1128 15.6037,45.7788 C14.5537,44.6638 14.6297,43.2998 14.7037,41.9788 C14.7227,41.6268 14.7437,41.2588 14.7437,40.8778 C14.7437,36.7788 15.5887,35.9298 18.0977,33.4128 C20.6527,30.8498 27.3287,27.7878 27.6107,27.6588 L27.9997,27.4818 L28.3887,27.6588 C28.6707,27.7878 35.3477,30.8498 37.9017,33.4128 C40.4107,35.9298 41.2557,36.7788 41.2557,40.8778 C41.2557,41.2588 41.2767,41.6268 41.2957,41.9788 C41.3697,43.2998 41.4457,44.6638 40.3957,45.7788 C39.1397,47.1128 36.5507,47.9998 27.9997,47.9998"
                      id="Fill-21" fill="#0C80FE"/>
                <path d="M27.9997,32.8351 C22.6337,32.8351 18.2697,28.4541 18.2697,23.0691 C18.2697,17.6841 22.6337,13.3041 27.9997,13.3041 C33.3657,13.3041 37.7307,17.6841 37.7307,23.0691 C37.7307,28.4541 33.3657,32.8351 27.9997,32.8351"
                      id="Fill-23" fill="#FFFFFF"/>
                <path d="M27.9997,12.3624 C22.1167,12.3624 17.3317,17.1654 17.3317,23.0694 C17.3317,28.9724 22.1167,33.7754 27.9997,33.7754 C33.8827,33.7754 38.6687,28.9724 38.6687,23.0694 C38.6687,17.1654 33.8827,12.3624 27.9997,12.3624 M27.9997,14.2454 C32.8557,14.2454 36.7927,18.1964 36.7927,23.0694 C36.7927,27.9424 32.8557,31.8934 27.9997,31.8934 C23.1437,31.8934 19.2067,27.9424 19.2067,23.0694 C19.2067,18.1964 23.1437,14.2454 27.9997,14.2454"
                      id="Fill-25" fill="#0C80FE"/>
            </g>
        </g>
    </g>
</svg>
