<svg width="48px" height="32px" viewBox="0 0 48 32" version="1.1" xmlns="http://www.w3.org/2000/svg" xmlns:xlink="http://www.w3.org/1999/xlink">
    <g id="Symbols" stroke="none" stroke-width="1" fill="none" fill-rule="evenodd">
        <g id="Contact-Icon" transform="translate(-4.000000, -8.000000)">
            <g id="Group-8" transform="translate(4.000000, 8.000000)">
                <path d="M47.1309,29.4268 C47.1309,30.3768 46.3769,31.1468 45.4459,31.1468 L2.5519,31.1468 C1.6219,31.1468 0.8679,30.3768 0.8679,29.4268 L0.8689,2.5728 C0.8689,1.6228 1.6229,0.8538 2.5529,0.8538 L45.4469,0.8538 C46.3769,0.8538 47.1309,1.6238 47.1309,2.5728 L47.1309,29.4268 Z" id="Fill-1" fill="#FFFFFF"></path>
                <path d="M2.5527,1.707 C2.1037,1.707 1.7377,2.096 1.7377,2.574 L1.7377,29.426 C1.7377,29.904 2.1037,30.293 2.5527,30.293 L45.4467,30.293 C45.8957,30.293 46.2617,29.905 46.2617,29.427 L46.2627,2.574 C46.2627,2.096 45.8967,1.707 45.4477,1.707 L2.5527,1.707 Z M45.4467,32 L2.5527,32 C1.1457,32 -0.0003,30.846 -0.0003,29.426 L-0.0003,2.574 C-0.0003,1.154 1.1457,0 2.5527,0 L45.4477,0 C46.8547,0 47.9997,1.154 47.9997,2.574 L47.9987,29.427 C47.9987,30.847 46.8537,32 45.4467,32 Z" id="Fill-3" fill="#0C80FE"></path>
                <polygon id="Fill-6" fill="#0C80FE" points="24 19.1055 0.482 7.6485 1.255 6.1195 24 17.2015 46.745 6.1195 47.518 7.6485"></polygon>
            </g>
        </g>
    </g>
</svg>
